<?xml version="1.0" encoding="UTF-8" standalone="no"?>
<!-- Generator: Adobe Illustrator 17.0.0, SVG Export Plug-In . SVG Version: 6.00 Build 0)  -->

<svg
   xmlns:dc="http://purl.org/dc/elements/1.1/"
   xmlns:cc="http://creativecommons.org/ns#"
   xmlns:rdf="http://www.w3.org/1999/02/22-rdf-syntax-ns#"
   xmlns:svg="http://www.w3.org/2000/svg"
   xmlns="http://www.w3.org/2000/svg"
   xmlns:sodipodi="http://sodipodi.sourceforge.net/DTD/sodipodi-0.dtd"
   xmlns:inkscape="http://www.inkscape.org/namespaces/inkscape"
   version="1.1"
   id="Layer_1"
   x="0px"
   y="0px"
   width="472.5101"
   height="181.401"
   viewBox="0 0 472.5101 181.401"
   enable-background="new 0 0 612 792"
   xml:space="preserve"
   sodipodi:docname="Logo completo negro.svg"
   inkscape:version="0.92.4 (5da689c313, 2019-01-14)"><metadata
   id="metadata381"><rdf:RDF><cc:Work
       rdf:about=""><dc:format>image/svg+xml</dc:format><dc:type
         rdf:resource="http://purl.org/dc/dcmitype/StillImage" /><dc:title></dc:title></cc:Work></rdf:RDF></metadata><defs
   id="defs379" /><sodipodi:namedview
   pagecolor="#ffffff"
   bordercolor="#666666"
   borderopacity="1"
   objecttolerance="10"
   gridtolerance="10"
   guidetolerance="10"
   inkscape:pageopacity="0"
   inkscape:pageshadow="2"
   inkscape:window-width="2560"
   inkscape:window-height="1385"
   id="namedview377"
   showgrid="false"
   fit-margin-top="5"
   fit-margin-left="5"
   fit-margin-right="5"
   fit-margin-bottom="5"
   inkscape:zoom="0.2979798"
   inkscape:cx="241.569"
   inkscape:cy="46.807"
   inkscape:window-x="0"
   inkscape:window-y="27"
   inkscape:window-maximized="1"
   inkscape:current-layer="Layer_1" />
<g
   id="g374"
   transform="translate(-64.431,-261.406)">
	<g
   id="g268">
		<g
   id="g262">
			<polygon
   points="398.984,318.792 391.96,330.672 403.785,352.701 410.814,340.324 "
   id="polygon260" />
		</g>
		<g
   id="g266">
			<path
   d="m 403.78,353.11 -12.047,-22.443 7.257,-12.275 12.051,21.933 z m -11.592,-22.433 11.603,21.615 6.797,-11.968 -11.61,-21.131 z"
   id="path264"
   inkscape:connector-curvature="0" />
		</g>
	</g>
	<g
   id="g278">
		<g
   id="g272">
			<polygon
   points="417.397,340.126 402.449,312.803 408.983,301.517 435.415,347.551 413.536,347.65 "
   id="polygon270" />
		</g>
		<g
   id="g276">
			<path
   d="m 413.212,347.85 3.962,-7.721 -14.952,-27.329 6.762,-11.679 26.773,46.627 z m -10.536,-35.044 14.946,27.318 -3.76,7.327 21.213,-0.096 -26.092,-45.442 z"
   id="path274"
   inkscape:connector-curvature="0" />
		</g>
	</g>
	<g
   id="g284">
		<g
   id="g282">
			<polygon
   points="442.378,347.65 412.415,295.313 429.311,266.406 435.415,278.153 425.086,295.313 455.578,347.65 "
   id="polygon280" />
		</g>
	</g>
	<g
   id="g290">
		<g
   id="g288">
			<polygon
   points="459.802,343.229 432.082,294.389 438.682,283.565 466.661,332.273 "
   id="polygon286" />
		</g>
	</g>
	<g
   id="g364">
		<g
   id="g294">
			<path
   d="m 413.269,364.107 c 0.237,-1.596 0.714,-3.064 1.434,-4.405 0.719,-1.34 1.626,-2.498 2.72,-3.474 1.094,-0.976 2.34,-1.739 3.739,-2.291 1.399,-0.552 2.897,-0.828 4.494,-0.828 1.597,0 3.02,0.276 4.271,0.828 1.252,0.552 2.281,1.315 3.089,2.291 0.808,0.976 1.384,2.134 1.729,3.474 0.344,1.34 0.399,2.808 0.163,4.405 -0.217,1.596 -0.685,3.07 -1.404,4.42 -0.72,1.35 -1.626,2.513 -2.72,3.488 -1.094,0.976 -2.341,1.734 -3.74,2.276 -1.399,0.542 -2.897,0.813 -4.493,0.813 -1.596,0 -3.021,-0.271 -4.272,-0.813 -1.252,-0.542 -2.286,-1.301 -3.104,-2.276 -0.818,-0.976 -1.394,-2.138 -1.729,-3.488 -0.335,-1.35 -0.394,-2.823 -0.177,-4.42 z m 1.951,0 c -0.177,1.301 -0.138,2.513 0.118,3.636 0.256,1.123 0.709,2.099 1.36,2.927 0.65,0.828 1.488,1.478 2.513,1.951 1.024,0.473 2.217,0.709 3.577,0.709 1.36,0 2.621,-0.237 3.784,-0.709 1.163,-0.473 2.187,-1.123 3.074,-1.951 0.887,-0.828 1.616,-1.803 2.187,-2.927 0.571,-1.123 0.946,-2.335 1.123,-3.636 0.177,-1.301 0.143,-2.513 -0.103,-3.636 -0.247,-1.123 -0.695,-2.099 -1.345,-2.927 -0.65,-0.828 -1.493,-1.478 -2.527,-1.951 -1.035,-0.473 -2.232,-0.709 -3.592,-0.709 -1.36,0 -2.621,0.236 -3.784,0.709 -1.163,0.473 -2.187,1.123 -3.074,1.951 -0.887,0.828 -1.616,1.803 -2.187,2.927 -0.572,1.123 -0.946,2.336 -1.124,3.636 z"
   id="path292"
   inkscape:connector-curvature="0" />
		</g>
		<g
   id="g298">
			<path
   d="m 438.84,360.915 h 1.774 l -0.325,2.394 h 0.059 c 0.335,-0.473 0.734,-0.882 1.197,-1.227 0.463,-0.344 0.956,-0.63 1.478,-0.857 0.522,-0.226 1.054,-0.394 1.596,-0.503 0.542,-0.108 1.069,-0.163 1.581,-0.163 1.044,0 1.981,0.177 2.809,0.532 0.828,0.355 1.517,0.852 2.07,1.493 0.551,0.641 0.941,1.399 1.167,2.276 0.226,0.877 0.271,1.838 0.133,2.882 -0.157,1.045 -0.472,2.006 -0.945,2.882 -0.473,0.877 -1.074,1.636 -1.803,2.276 -0.729,0.641 -1.557,1.138 -2.483,1.493 -0.926,0.355 -1.911,0.532 -2.956,0.532 -0.513,0 -1.025,-0.055 -1.537,-0.163 -0.513,-0.109 -1,-0.276 -1.463,-0.503 -0.464,-0.226 -0.877,-0.512 -1.242,-0.857 -0.365,-0.344 -0.646,-0.754 -0.843,-1.227 h -0.059 l -1.301,9.135 h -1.774 z m 0.65,6.828 c -0.118,0.769 -0.079,1.493 0.118,2.173 0.197,0.68 0.517,1.271 0.961,1.774 0.444,0.503 0.99,0.902 1.641,1.197 0.65,0.295 1.379,0.443 2.187,0.443 0.828,0 1.597,-0.148 2.306,-0.443 0.71,-0.296 1.335,-0.695 1.877,-1.197 0.542,-0.503 0.985,-1.094 1.33,-1.774 0.345,-0.68 0.577,-1.404 0.695,-2.173 0.118,-0.769 0.098,-1.493 -0.059,-2.173 -0.158,-0.68 -0.434,-1.271 -0.828,-1.774 -0.395,-0.503 -0.907,-0.902 -1.537,-1.197 -0.63,-0.296 -1.359,-0.444 -2.187,-0.444 -0.809,0 -1.581,0.148 -2.321,0.444 -0.739,0.296 -1.399,0.695 -1.981,1.197 -0.582,0.503 -1.064,1.094 -1.449,1.774 -0.385,0.68 -0.634,1.405 -0.753,2.173 z"
   id="path296"
   inkscape:connector-curvature="0" />
		</g>
		<g
   id="g302">
			<path
   d="m 467.81,372 c -0.848,1.045 -1.809,1.793 -2.882,2.246 -1.074,0.453 -2.222,0.68 -3.444,0.68 -1.045,0 -1.966,-0.177 -2.764,-0.532 -0.798,-0.355 -1.459,-0.852 -1.981,-1.493 -0.523,-0.64 -0.887,-1.399 -1.094,-2.276 -0.207,-0.876 -0.232,-1.848 -0.074,-2.912 0.138,-1.024 0.438,-1.97 0.902,-2.838 0.463,-0.867 1.044,-1.621 1.744,-2.261 0.699,-0.64 1.487,-1.143 2.365,-1.508 0.876,-0.365 1.818,-0.547 2.823,-0.547 1.044,0 1.941,0.182 2.69,0.547 0.748,0.365 1.355,0.848 1.818,1.449 0.463,0.601 0.778,1.286 0.946,2.054 0.167,0.769 0.192,1.547 0.074,2.335 l -0.177,1.241 h -11.47 c -0.059,0.375 -0.055,0.852 0.015,1.434 0.069,0.582 0.261,1.148 0.577,1.7 0.315,0.552 0.773,1.025 1.374,1.419 0.601,0.394 1.424,0.591 2.469,0.591 0.906,0 1.818,-0.217 2.734,-0.65 0.916,-0.433 1.65,-1.024 2.202,-1.774 z m -0.621,-5.409 c 0.078,-0.611 0.039,-1.182 -0.118,-1.714 -0.158,-0.532 -0.424,-1 -0.798,-1.404 -0.374,-0.404 -0.832,-0.724 -1.374,-0.961 -0.543,-0.237 -1.138,-0.355 -1.789,-0.355 -0.966,0 -1.799,0.197 -2.498,0.591 -0.7,0.394 -1.276,0.847 -1.729,1.36 -0.453,0.513 -0.793,1.01 -1.02,1.493 -0.227,0.483 -0.35,0.813 -0.369,0.99 z"
   id="path300"
   inkscape:connector-curvature="0" />
		</g>
		<g
   id="g306">
			<path
   d="m 473.19,364.758 c 0.039,-0.256 0.079,-0.566 0.118,-0.931 0.039,-0.365 0.074,-0.734 0.104,-1.108 0.03,-0.374 0.059,-0.724 0.089,-1.049 0.029,-0.325 0.054,-0.576 0.074,-0.754 h 1.774 c -0.04,0.513 -0.089,1.005 -0.148,1.478 -0.059,0.473 -0.079,0.779 -0.059,0.917 h 0.089 c 0.237,-0.374 0.527,-0.729 0.872,-1.064 0.345,-0.335 0.734,-0.625 1.168,-0.872 0.433,-0.246 0.906,-0.443 1.419,-0.591 0.512,-0.148 1.044,-0.222 1.597,-0.222 1.064,0 1.911,0.168 2.542,0.503 0.631,0.335 1.099,0.774 1.404,1.316 0.305,0.542 0.478,1.168 0.517,1.877 0.04,0.71 0.01,1.439 -0.089,2.187 l -1.123,8.129 h -1.774 l 1.123,-8.041 c 0.079,-0.552 0.108,-1.089 0.089,-1.611 -0.02,-0.522 -0.128,-0.99 -0.325,-1.404 -0.197,-0.414 -0.498,-0.744 -0.902,-0.991 -0.404,-0.246 -0.961,-0.37 -1.67,-0.37 -0.65,0 -1.281,0.114 -1.892,0.34 -0.611,0.227 -1.163,0.572 -1.656,1.035 -0.493,0.463 -0.911,1.045 -1.256,1.744 -0.345,0.7 -0.587,1.522 -0.725,2.469 l -0.946,6.829 h -1.774 z"
   id="path304"
   inkscape:connector-curvature="0" />
		</g>
		<g
   id="g310">
			<path
   d="m 414.274,400.989 c 0.394,0.887 0.965,1.548 1.714,1.981 0.749,0.434 1.646,0.65 2.69,0.65 0.65,0 1.276,-0.099 1.877,-0.296 0.601,-0.197 1.138,-0.473 1.611,-0.828 0.473,-0.355 0.867,-0.783 1.182,-1.286 0.315,-0.502 0.522,-1.069 0.621,-1.699 0.098,-0.729 0.029,-1.331 -0.207,-1.803 -0.237,-0.473 -0.587,-0.862 -1.049,-1.168 -0.463,-0.305 -1.005,-0.566 -1.626,-0.783 -0.621,-0.217 -1.252,-0.434 -1.892,-0.65 -0.641,-0.217 -1.267,-0.463 -1.877,-0.739 -0.611,-0.276 -1.138,-0.635 -1.581,-1.079 -0.444,-0.444 -0.774,-1 -0.99,-1.67 -0.217,-0.67 -0.256,-1.498 -0.118,-2.483 0.138,-0.926 0.443,-1.749 0.917,-2.468 0.473,-0.719 1.054,-1.32 1.744,-1.804 0.69,-0.483 1.453,-0.847 2.291,-1.094 0.837,-0.246 1.7,-0.369 2.587,-0.369 1.143,0 2.173,0.203 3.089,0.606 0.917,0.404 1.66,1.079 2.232,2.025 l -1.862,1.212 c -0.394,-0.69 -0.897,-1.207 -1.508,-1.552 -0.611,-0.344 -1.37,-0.517 -2.276,-0.517 -0.631,0 -1.242,0.084 -1.833,0.251 -0.591,0.168 -1.123,0.414 -1.596,0.739 -0.473,0.325 -0.872,0.734 -1.197,1.227 -0.325,0.493 -0.537,1.074 -0.635,1.744 -0.118,0.788 -0.055,1.434 0.192,1.936 0.246,0.503 0.596,0.917 1.049,1.242 0.453,0.325 0.99,0.591 1.611,0.798 0.62,0.207 1.251,0.414 1.892,0.621 0.64,0.207 1.266,0.439 1.877,0.695 0.611,0.256 1.143,0.596 1.596,1.02 0.453,0.424 0.788,0.961 1.005,1.611 0.217,0.65 0.256,1.468 0.118,2.454 -0.138,0.946 -0.439,1.784 -0.902,2.513 -0.463,0.729 -1.03,1.345 -1.7,1.848 -0.67,0.503 -1.414,0.882 -2.232,1.138 -0.818,0.256 -1.651,0.385 -2.498,0.385 -1.38,0 -2.621,-0.241 -3.725,-0.724 -1.104,-0.483 -1.981,-1.296 -2.631,-2.439 z"
   id="path308"
   inkscape:connector-curvature="0" />
		</g>
		<g
   id="g314">
			<path
   d="m 429.292,398.033 c 0.138,-1.044 0.448,-2.005 0.932,-2.882 0.483,-0.876 1.084,-1.635 1.803,-2.276 0.719,-0.64 1.547,-1.138 2.483,-1.493 0.936,-0.355 1.926,-0.532 2.971,-0.532 1.044,0 1.981,0.177 2.809,0.532 0.828,0.355 1.517,0.852 2.069,1.493 0.551,0.641 0.941,1.4 1.168,2.276 0.227,0.877 0.271,1.838 0.133,2.882 -0.158,1.045 -0.473,2.006 -0.946,2.882 -0.473,0.877 -1.074,1.636 -1.803,2.276 -0.729,0.641 -1.557,1.138 -2.483,1.493 -0.926,0.355 -1.912,0.532 -2.957,0.532 -1.045,0 -1.986,-0.177 -2.823,-0.532 -0.838,-0.355 -1.528,-0.852 -2.069,-1.493 -0.542,-0.64 -0.931,-1.399 -1.168,-2.276 -0.238,-0.877 -0.277,-1.838 -0.119,-2.882 z m 1.773,0 c -0.118,0.769 -0.099,1.493 0.059,2.173 0.157,0.68 0.433,1.271 0.828,1.774 0.394,0.503 0.906,0.902 1.537,1.197 0.631,0.296 1.36,0.444 2.187,0.444 0.828,0 1.597,-0.148 2.306,-0.444 0.71,-0.296 1.335,-0.695 1.877,-1.197 0.542,-0.503 0.985,-1.094 1.33,-1.774 0.344,-0.68 0.576,-1.404 0.695,-2.173 0.118,-0.768 0.098,-1.493 -0.059,-2.172 -0.158,-0.68 -0.434,-1.271 -0.827,-1.774 -0.395,-0.503 -0.907,-0.902 -1.537,-1.197 -0.631,-0.296 -1.36,-0.444 -2.187,-0.444 -0.828,0 -1.597,0.148 -2.306,0.444 -0.71,0.296 -1.335,0.695 -1.877,1.197 -0.542,0.503 -0.986,1.094 -1.33,1.774 -0.346,0.679 -0.577,1.403 -0.696,2.172 z"
   id="path312"
   inkscape:connector-curvature="0" />
		</g>
		<g
   id="g318">
			<path
   d="m 458.765,401.019 c -0.04,0.256 -0.079,0.567 -0.118,0.931 -0.04,0.365 -0.074,0.735 -0.104,1.108 -0.029,0.374 -0.059,0.724 -0.089,1.049 -0.03,0.325 -0.054,0.576 -0.074,0.754 h -1.774 c 0.039,-0.512 0.089,-1.005 0.148,-1.478 0.059,-0.473 0.078,-0.778 0.059,-0.917 h -0.089 c -0.237,0.375 -0.528,0.729 -0.872,1.064 -0.345,0.335 -0.735,0.626 -1.168,0.872 -0.434,0.247 -0.907,0.444 -1.419,0.591 -0.513,0.148 -1.045,0.222 -1.597,0.222 -1.064,0 -1.911,-0.168 -2.542,-0.503 -0.631,-0.335 -1.099,-0.773 -1.404,-1.316 -0.306,-0.542 -0.478,-1.168 -0.517,-1.877 -0.04,-0.71 -0.01,-1.438 0.089,-2.187 l 1.123,-8.129 h 1.774 l -1.123,8.041 c -0.079,0.552 -0.109,1.089 -0.089,1.611 0.019,0.523 0.128,0.99 0.325,1.404 0.197,0.414 0.497,0.744 0.902,0.99 0.403,0.247 0.961,0.37 1.67,0.37 0.65,0 1.281,-0.113 1.892,-0.34 0.611,-0.226 1.163,-0.571 1.655,-1.035 0.493,-0.463 0.911,-1.044 1.256,-1.744 0.345,-0.7 0.586,-1.522 0.724,-2.469 l 0.946,-6.828 h 1.774 z"
   id="path316"
   inkscape:connector-curvature="0" />
		</g>
		<g
   id="g322">
			<path
   d="m 464.469,395.047 c 0.039,-0.256 0.079,-0.566 0.118,-0.931 0.039,-0.365 0.074,-0.734 0.104,-1.108 0.03,-0.374 0.059,-0.724 0.088,-1.049 0.03,-0.325 0.054,-0.576 0.074,-0.754 h 1.774 c -0.04,0.513 -0.089,1.005 -0.148,1.478 -0.059,0.473 -0.079,0.779 -0.059,0.917 0.571,-0.808 1.246,-1.468 2.025,-1.981 0.778,-0.512 1.68,-0.769 2.705,-0.769 0.315,0 0.65,0.05 1.005,0.148 l -0.443,1.744 c -0.217,-0.078 -0.434,-0.118 -0.65,-0.118 -0.769,0 -1.449,0.123 -2.04,0.369 -0.591,0.247 -1.104,0.587 -1.537,1.02 -0.434,0.434 -0.779,0.942 -1.035,1.522 -0.256,0.582 -0.434,1.208 -0.532,1.877 l -1.035,7.449 h -1.774 z"
   id="path320"
   inkscape:connector-curvature="0" />
		</g>
		<g
   id="g326">
			<path
   d="m 484.128,402.851 c -0.788,0.808 -1.631,1.404 -2.528,1.789 -0.897,0.384 -1.838,0.576 -2.823,0.576 -1.045,0 -1.986,-0.177 -2.823,-0.532 -0.838,-0.355 -1.528,-0.852 -2.069,-1.493 -0.543,-0.64 -0.931,-1.399 -1.168,-2.276 -0.237,-0.876 -0.276,-1.837 -0.118,-2.882 0.138,-1.044 0.448,-2.005 0.931,-2.882 0.483,-0.876 1.084,-1.635 1.803,-2.276 0.719,-0.64 1.547,-1.138 2.483,-1.493 0.936,-0.355 1.926,-0.532 2.971,-0.532 1.005,0 1.907,0.207 2.705,0.621 0.798,0.414 1.483,0.995 2.055,1.744 l -1.567,1.064 c -0.453,-0.571 -0.956,-1.02 -1.508,-1.345 -0.552,-0.325 -1.183,-0.488 -1.892,-0.488 -0.828,0 -1.596,0.148 -2.306,0.444 -0.71,0.296 -1.335,0.695 -1.877,1.197 -0.542,0.503 -0.986,1.094 -1.33,1.774 -0.345,0.68 -0.576,1.404 -0.695,2.172 -0.118,0.769 -0.099,1.493 0.059,2.173 0.157,0.68 0.433,1.271 0.827,1.774 0.394,0.503 0.906,0.902 1.537,1.197 0.631,0.296 1.36,0.444 2.187,0.444 0.748,0 1.458,-0.172 2.128,-0.517 0.67,-0.344 1.271,-0.803 1.803,-1.374 z"
   id="path324"
   inkscape:connector-curvature="0" />
		</g>
		<g
   id="g330">
			<path
   d="m 499.056,402.289 c -0.848,1.045 -1.809,1.794 -2.882,2.247 -1.074,0.453 -2.222,0.68 -3.444,0.68 -1.045,0 -1.966,-0.177 -2.764,-0.532 -0.798,-0.355 -1.459,-0.852 -1.981,-1.493 -0.523,-0.64 -0.887,-1.399 -1.094,-2.276 -0.207,-0.876 -0.232,-1.847 -0.074,-2.912 0.138,-1.024 0.438,-1.97 0.902,-2.838 0.463,-0.867 1.044,-1.621 1.744,-2.262 0.699,-0.64 1.487,-1.143 2.365,-1.508 0.876,-0.365 1.818,-0.547 2.823,-0.547 1.044,0 1.941,0.182 2.69,0.547 0.748,0.365 1.355,0.848 1.818,1.449 0.463,0.602 0.778,1.286 0.946,2.055 0.167,0.769 0.192,1.548 0.074,2.335 l -0.177,1.241 h -11.47 c -0.059,0.375 -0.055,0.853 0.015,1.434 0.069,0.582 0.261,1.148 0.577,1.7 0.315,0.552 0.773,1.025 1.374,1.419 0.601,0.394 1.424,0.591 2.469,0.591 0.906,0 1.818,-0.217 2.734,-0.65 0.916,-0.433 1.65,-1.024 2.202,-1.774 z m -0.621,-5.409 c 0.078,-0.611 0.039,-1.182 -0.118,-1.714 -0.158,-0.532 -0.424,-1 -0.798,-1.404 -0.374,-0.403 -0.832,-0.724 -1.374,-0.961 -0.543,-0.237 -1.138,-0.355 -1.789,-0.355 -0.966,0 -1.799,0.197 -2.498,0.591 -0.7,0.394 -1.276,0.847 -1.729,1.36 -0.453,0.513 -0.793,1.01 -1.02,1.493 -0.227,0.483 -0.35,0.813 -0.369,0.99 z"
   id="path328"
   inkscape:connector-curvature="0" />
		</g>
		<g
   id="g334">
			<path
   d="m 415.9,414.221 h 2.927 l 5.173,17.56 10.081,-17.56 h 2.779 l -2.927,20.93 h -1.951 l 2.572,-18.446 h -0.059 l -10.554,18.446 h -0.857 l -5.528,-18.446 h -0.059 l -2.572,18.446 h -1.951 z"
   id="path332"
   inkscape:connector-curvature="0" />
		</g>
		<g
   id="g338">
			<path
   d="m 451.374,432.579 c -0.848,1.045 -1.809,1.794 -2.882,2.247 -1.074,0.453 -2.222,0.68 -3.444,0.68 -1.044,0 -1.966,-0.177 -2.764,-0.532 -0.798,-0.355 -1.459,-0.852 -1.981,-1.493 -0.523,-0.64 -0.887,-1.399 -1.094,-2.276 -0.206,-0.876 -0.232,-1.847 -0.074,-2.912 0.138,-1.024 0.438,-1.97 0.902,-2.838 0.463,-0.867 1.044,-1.621 1.744,-2.262 0.699,-0.64 1.488,-1.143 2.365,-1.508 0.877,-0.365 1.818,-0.547 2.823,-0.547 1.044,0 1.941,0.182 2.69,0.547 0.749,0.365 1.355,0.848 1.818,1.449 0.463,0.602 0.779,1.286 0.946,2.055 0.167,0.769 0.192,1.548 0.074,2.335 l -0.177,1.241 h -11.47 c -0.059,0.375 -0.055,0.853 0.015,1.434 0.069,0.582 0.261,1.148 0.576,1.7 0.315,0.552 0.773,1.025 1.375,1.419 0.601,0.394 1.424,0.591 2.468,0.591 0.906,0 1.818,-0.217 2.735,-0.65 0.916,-0.433 1.65,-1.024 2.202,-1.774 z m -0.621,-5.41 c 0.078,-0.611 0.039,-1.182 -0.118,-1.714 -0.158,-0.532 -0.424,-1 -0.798,-1.404 -0.375,-0.403 -0.832,-0.724 -1.375,-0.961 -0.543,-0.237 -1.138,-0.355 -1.789,-0.355 -0.965,0 -1.798,0.197 -2.498,0.591 -0.7,0.394 -1.277,0.847 -1.73,1.36 -0.453,0.513 -0.793,1.01 -1.02,1.493 -0.226,0.483 -0.35,0.813 -0.369,0.99 z"
   id="path336"
   inkscape:connector-curvature="0" />
		</g>
		<g
   id="g342">
			<path
   d="m 467.662,432.756 h -0.059 c -0.336,0.473 -0.735,0.882 -1.197,1.227 -0.464,0.345 -0.956,0.631 -1.478,0.858 -0.523,0.227 -1.055,0.394 -1.597,0.502 -0.542,0.108 -1.069,0.163 -1.581,0.163 -1.045,0 -1.986,-0.177 -2.823,-0.532 -0.838,-0.355 -1.528,-0.852 -2.069,-1.493 -0.543,-0.64 -0.931,-1.399 -1.168,-2.276 -0.237,-0.876 -0.276,-1.837 -0.118,-2.882 0.138,-1.044 0.448,-2.005 0.931,-2.882 0.483,-0.876 1.084,-1.635 1.803,-2.276 0.719,-0.64 1.547,-1.138 2.483,-1.493 0.936,-0.355 1.926,-0.532 2.971,-0.532 0.512,0 1.024,0.055 1.537,0.162 0.512,0.109 1,0.276 1.464,0.503 0.463,0.227 0.872,0.513 1.227,0.858 0.354,0.345 0.64,0.754 0.857,1.227 h 0.059 l 1.567,-11.086 h 1.774 l -3.133,22.349 h -1.774 z m 0.798,-4.434 c 0.118,-0.768 0.079,-1.493 -0.118,-2.172 -0.197,-0.68 -0.517,-1.271 -0.961,-1.774 -0.443,-0.503 -0.99,-0.902 -1.64,-1.197 -0.65,-0.296 -1.38,-0.444 -2.187,-0.444 -0.828,0 -1.596,0.148 -2.306,0.444 -0.71,0.296 -1.335,0.695 -1.877,1.197 -0.542,0.503 -0.986,1.093 -1.33,1.774 -0.345,0.68 -0.576,1.404 -0.695,2.172 -0.118,0.769 -0.099,1.493 0.059,2.173 0.157,0.68 0.433,1.271 0.827,1.774 0.394,0.503 0.906,0.902 1.537,1.197 0.631,0.296 1.36,0.444 2.187,0.444 0.808,0 1.581,-0.148 2.32,-0.444 0.739,-0.296 1.399,-0.695 1.981,-1.197 0.581,-0.503 1.064,-1.094 1.449,-1.774 0.385,-0.68 0.636,-1.404 0.754,-2.173 z"
   id="path340"
   inkscape:connector-curvature="0" />
		</g>
		<g
   id="g346">
			<path
   d="m 475.673,421.494 h 1.774 l -1.892,13.657 h -1.774 z m 0.325,-5.411 c 0.059,-0.374 0.231,-0.689 0.517,-0.946 0.285,-0.256 0.615,-0.385 0.99,-0.385 0.374,0 0.675,0.129 0.902,0.385 0.226,0.256 0.31,0.572 0.251,0.946 -0.04,0.375 -0.207,0.69 -0.503,0.946 -0.295,0.256 -0.631,0.385 -1.005,0.385 -0.375,0 -0.67,-0.128 -0.887,-0.385 -0.216,-0.255 -0.305,-0.571 -0.265,-0.946 z"
   id="path344"
   inkscape:connector-curvature="0" />
		</g>
		<g
   id="g350">
			<path
   d="m 492.286,433.141 c -0.788,0.808 -1.631,1.404 -2.528,1.789 -0.897,0.384 -1.838,0.576 -2.823,0.576 -1.045,0 -1.986,-0.177 -2.823,-0.532 -0.838,-0.355 -1.528,-0.852 -2.069,-1.493 -0.543,-0.64 -0.931,-1.399 -1.168,-2.276 -0.237,-0.876 -0.276,-1.837 -0.118,-2.882 0.138,-1.044 0.448,-2.005 0.931,-2.882 0.483,-0.876 1.084,-1.635 1.803,-2.276 0.719,-0.64 1.547,-1.138 2.483,-1.493 0.936,-0.355 1.926,-0.532 2.971,-0.532 1.005,0 1.907,0.207 2.705,0.621 0.798,0.414 1.483,0.995 2.055,1.744 l -1.567,1.064 c -0.453,-0.571 -0.956,-1.02 -1.508,-1.345 -0.552,-0.325 -1.183,-0.488 -1.892,-0.488 -0.828,0 -1.596,0.148 -2.306,0.444 -0.71,0.296 -1.335,0.695 -1.877,1.197 -0.542,0.503 -0.986,1.093 -1.33,1.774 -0.345,0.68 -0.576,1.404 -0.695,2.172 -0.118,0.769 -0.099,1.493 0.059,2.173 0.157,0.68 0.433,1.271 0.827,1.774 0.394,0.503 0.906,0.902 1.537,1.197 0.631,0.296 1.36,0.444 2.187,0.444 0.748,0 1.458,-0.172 2.128,-0.517 0.67,-0.344 1.271,-0.803 1.803,-1.374 z"
   id="path348"
   inkscape:connector-curvature="0" />
		</g>
		<g
   id="g354">
			<path
   d="m 496.986,421.494 h 1.774 l -1.892,13.657 h -1.774 z m 0.326,-5.411 c 0.059,-0.374 0.231,-0.689 0.517,-0.946 0.285,-0.256 0.615,-0.385 0.99,-0.385 0.374,0 0.675,0.129 0.902,0.385 0.226,0.256 0.31,0.572 0.251,0.946 -0.04,0.375 -0.207,0.69 -0.503,0.946 -0.295,0.256 -0.631,0.385 -1.005,0.385 -0.375,0 -0.67,-0.128 -0.887,-0.385 -0.217,-0.255 -0.305,-0.571 -0.265,-0.946 z"
   id="path352"
   inkscape:connector-curvature="0" />
		</g>
		<g
   id="g358">
			<path
   d="m 503.253,425.336 c 0.039,-0.256 0.079,-0.566 0.118,-0.931 0.039,-0.365 0.074,-0.734 0.104,-1.108 0.029,-0.374 0.059,-0.724 0.088,-1.049 0.029,-0.325 0.054,-0.576 0.074,-0.754 h 1.774 c -0.04,0.513 -0.089,1.005 -0.148,1.478 -0.059,0.473 -0.079,0.779 -0.059,0.917 h 0.089 c 0.237,-0.374 0.527,-0.729 0.872,-1.064 0.345,-0.335 0.734,-0.626 1.168,-0.872 0.433,-0.246 0.906,-0.444 1.419,-0.591 0.512,-0.148 1.044,-0.221 1.597,-0.221 1.064,0 1.911,0.168 2.542,0.503 0.631,0.335 1.099,0.774 1.404,1.316 0.305,0.542 0.478,1.167 0.517,1.877 0.039,0.71 0.01,1.439 -0.089,2.187 l -1.123,8.129 h -1.774 l 1.123,-8.041 c 0.079,-0.551 0.108,-1.089 0.089,-1.611 -0.02,-0.522 -0.128,-0.991 -0.325,-1.404 -0.197,-0.414 -0.498,-0.744 -0.902,-0.99 -0.404,-0.246 -0.961,-0.369 -1.67,-0.369 -0.65,0 -1.281,0.114 -1.892,0.34 -0.611,0.226 -1.163,0.572 -1.656,1.035 -0.493,0.463 -0.911,1.045 -1.256,1.744 -0.345,0.7 -0.587,1.522 -0.725,2.468 l -0.946,6.829 h -1.774 z"
   id="path356"
   inkscape:connector-curvature="0" />
		</g>
		<g
   id="g362">
			<path
   d="m 530.745,432.579 c -0.848,1.045 -1.809,1.794 -2.882,2.247 -1.074,0.453 -2.222,0.68 -3.444,0.68 -1.045,0 -1.966,-0.177 -2.764,-0.532 -0.798,-0.355 -1.459,-0.852 -1.981,-1.493 -0.523,-0.64 -0.887,-1.399 -1.094,-2.276 -0.207,-0.876 -0.232,-1.847 -0.074,-2.912 0.138,-1.024 0.438,-1.97 0.902,-2.838 0.463,-0.867 1.044,-1.621 1.744,-2.262 0.699,-0.64 1.487,-1.143 2.365,-1.508 0.876,-0.365 1.818,-0.547 2.823,-0.547 1.044,0 1.941,0.182 2.69,0.547 0.748,0.365 1.355,0.848 1.818,1.449 0.463,0.602 0.778,1.286 0.946,2.055 0.167,0.769 0.192,1.548 0.074,2.335 l -0.177,1.241 h -11.47 c -0.059,0.375 -0.055,0.853 0.015,1.434 0.069,0.582 0.261,1.148 0.577,1.7 0.315,0.552 0.773,1.025 1.374,1.419 0.601,0.394 1.424,0.591 2.469,0.591 0.906,0 1.818,-0.217 2.734,-0.65 0.916,-0.433 1.65,-1.024 2.202,-1.774 z m -0.621,-5.41 c 0.078,-0.611 0.039,-1.182 -0.118,-1.714 -0.158,-0.532 -0.424,-1 -0.798,-1.404 -0.374,-0.403 -0.832,-0.724 -1.374,-0.961 -0.543,-0.237 -1.138,-0.355 -1.789,-0.355 -0.966,0 -1.799,0.197 -2.498,0.591 -0.7,0.394 -1.276,0.847 -1.729,1.36 -0.453,0.513 -0.794,1.01 -1.02,1.493 -0.227,0.483 -0.35,0.813 -0.369,0.99 z"
   id="path360"
   inkscape:connector-curvature="0" />
		</g>
	</g>
	<g
   id="g372">
		<path
   d="m 69.431,390.252 c 0,-7.243 1.342,-13.807 4.025,-19.687 2.683,-5.881 6.426,-10.886 11.228,-15.021 4.802,-4.133 10.498,-7.307 17.089,-9.524 6.589,-2.215 13.792,-3.323 21.608,-3.323 7.814,0 15.017,1.108 21.608,3.323 6.589,2.218 12.287,5.392 17.089,9.524 4.802,4.135 8.544,9.14 11.228,15.021 2.684,5.88 4.025,12.443 4.025,19.687 0,7.245 -1.341,13.807 -4.025,19.687 -2.684,5.881 -6.426,10.889 -11.228,15.021 -4.802,4.135 -10.5,7.309 -17.089,9.524 -6.591,2.215 -13.794,3.323 -21.608,3.323 -7.816,0 -15.019,-1.108 -21.608,-3.323 -6.591,-2.216 -12.287,-5.39 -17.089,-9.524 -4.802,-4.132 -8.544,-9.14 -11.228,-15.021 -2.684,-5.88 -4.025,-12.442 -4.025,-19.687 z m 22.879,0 c 0,4.263 0.729,8.161 2.189,11.697 1.459,3.537 3.553,6.605 6.285,9.204 2.729,2.601 6.002,4.624 9.815,6.072 3.813,1.45 8.072,2.173 12.781,2.173 4.707,0 8.968,-0.723 12.782,-2.173 3.813,-1.448 7.083,-3.472 9.815,-6.072 2.729,-2.599 4.824,-5.667 6.285,-9.204 1.458,-3.536 2.189,-7.435 2.189,-11.697 0,-4.175 -0.73,-8.054 -2.189,-11.633 -1.461,-3.58 -3.555,-6.668 -6.285,-9.269 -2.732,-2.599 -6.002,-4.622 -9.815,-6.072 -3.813,-1.448 -8.075,-2.173 -12.782,-2.173 -4.709,0 -8.968,0.725 -12.781,2.173 -3.813,1.45 -7.086,3.474 -9.815,6.072 -2.732,2.601 -4.826,5.688 -6.285,9.269 -1.46,3.579 -2.189,7.458 -2.189,11.633 z"
   id="path366"
   inkscape:connector-curvature="0" />
		<path
   d="m 241.73,367.113 c -1.79,-2.045 -4.215,-3.557 -7.273,-4.538 -3.061,-0.979 -5.956,-1.47 -8.686,-1.47 -1.602,0 -3.248,0.172 -4.943,0.512 -1.695,0.341 -3.297,0.874 -4.802,1.598 -1.507,0.725 -2.732,1.684 -3.672,2.876 -0.942,1.194 -1.413,2.643 -1.413,4.347 0,2.729 1.13,4.815 3.39,6.264 2.26,1.45 5.106,2.685 8.544,3.707 3.436,1.023 7.132,2.046 11.086,3.068 3.955,1.022 7.649,2.473 11.086,4.347 3.437,1.875 6.285,4.391 8.545,7.542 2.26,3.154 3.39,7.373 3.39,12.656 0,5.029 -1.037,9.418 -3.107,13.167 -2.072,3.751 -4.872,6.861 -8.403,9.332 -3.53,2.473 -7.626,4.305 -12.287,5.497 -4.661,1.192 -9.582,1.789 -14.759,1.789 -6.497,0 -12.523,-0.895 -18.078,-2.685 -5.557,-1.789 -10.733,-4.686 -15.535,-8.692 l 15.676,-15.596 c 2.26,2.729 5.106,4.837 8.544,6.327 3.436,1.492 6.991,2.237 10.663,2.237 1.788,0 3.602,-0.191 5.438,-0.575 1.836,-0.384 3.482,-0.959 4.943,-1.726 1.459,-0.768 2.635,-1.746 3.531,-2.94 0.894,-1.192 1.342,-2.599 1.342,-4.219 0,-2.727 -1.154,-4.878 -3.46,-6.455 -2.309,-1.576 -5.204,-2.919 -8.686,-4.027 -3.484,-1.106 -7.251,-2.215 -11.298,-3.323 -4.049,-1.107 -7.816,-2.599 -11.298,-4.475 -3.484,-1.874 -6.38,-4.347 -8.686,-7.414 -2.309,-3.068 -3.46,-7.115 -3.46,-12.145 0,-4.858 1.059,-9.118 3.178,-12.784 2.119,-3.663 4.943,-6.731 8.474,-9.204 3.531,-2.471 7.602,-4.324 12.216,-5.561 4.612,-1.234 9.368,-1.854 14.264,-1.854 5.649,0 11.109,0.725 16.383,2.173 5.272,1.45 10.028,3.879 14.264,7.287 z"
   id="path368"
   inkscape:connector-curvature="0" />
		<path
   d="m 273.365,344.998 h 33.33 l 23.021,59.061 h 0.283 l 23.161,-59.061 h 33.189 v 90.508 h -22.032 v -69.415 h -0.282 l -26.269,69.415 H 320.96 l -25.28,-69.415 h -0.283 v 69.415 h -22.031 v -90.508 z"
   id="path370"
   inkscape:connector-curvature="0" />
	</g>
</g>
</svg>