<?xml version="1.0" encoding="UTF-8" standalone="no"?>
<!-- Generator: Adobe Illustrator 17.0.0, SVG Export Plug-In . SVG Version: 6.00 Build 0)  -->

<svg
   xmlns:dc="http://purl.org/dc/elements/1.1/"
   xmlns:cc="http://creativecommons.org/ns#"
   xmlns:rdf="http://www.w3.org/1999/02/22-rdf-syntax-ns#"
   xmlns:svg="http://www.w3.org/2000/svg"
   xmlns="http://www.w3.org/2000/svg"
   xmlns:sodipodi="http://sodipodi.sourceforge.net/DTD/sodipodi-0.dtd"
   xmlns:inkscape="http://www.inkscape.org/namespaces/inkscape"
   version="1.1"
   id="Layer_1"
   x="0px"
   y="0px"
   width="525.54102"
   height="231.991"
   viewBox="0 0 525.54102 231.991"
   enable-background="new 0 0 612 792"
   xml:space="preserve"
   sodipodi:docname="Logo Gradient.svg"
   inkscape:version="0.92.4 (5da689c313, 2019-01-14)"><metadata
   id="metadata614"><rdf:RDF><cc:Work
       rdf:about=""><dc:format>image/svg+xml</dc:format><dc:type
         rdf:resource="http://purl.org/dc/dcmitype/StillImage" /><dc:title></dc:title></cc:Work></rdf:RDF></metadata><defs
   id="defs612" /><sodipodi:namedview
   pagecolor="#ffffff"
   bordercolor="#666666"
   borderopacity="1"
   objecttolerance="10"
   gridtolerance="10"
   guidetolerance="10"
   inkscape:pageopacity="0"
   inkscape:pageshadow="2"
   inkscape:window-width="2560"
   inkscape:window-height="1385"
   id="namedview610"
   showgrid="false"
   fit-margin-top="5"
   fit-margin-left="5"
   fit-margin-right="5"
   fit-margin-bottom="5"
   inkscape:zoom="0.2979798"
   inkscape:cx="261.073"
   inkscape:cy="137.075"
   inkscape:window-x="0"
   inkscape:window-y="27"
   inkscape:window-maximized="1"
   inkscape:current-layer="Layer_1" />
<g
   id="g401"
   transform="translate(-44.927,-301.084)">
	<linearGradient
   id="SVGID_1_"
   gradientUnits="userSpaceOnUse"
   x1="50.500301"
   y1="484.2265"
   x2="98.112"
   y2="484.2265">
		<stop
   offset="0"
   style="stop-color:#47C7F0"
   id="stop383" />
		<stop
   offset="0.2794"
   style="stop-color:#518ECB"
   id="stop385" />
		<stop
   offset="0.9979"
   style="stop-color:#2A3185"
   id="stop387" />
	</linearGradient>
	<polygon
   points="68.237,441.412 50.5,471.412 80.362,527.041 98.112,495.787 "
   id="polygon390"
   style="fill:url(#SVGID_1_)" />
	<linearGradient
   id="SVGID_2_"
   gradientUnits="userSpaceOnUse"
   x1="49.926701"
   y1="484.23901"
   x2="98.684998"
   y2="484.23901">
		<stop
   offset="0"
   style="stop-color:#47C7F0"
   id="stop392" />
		<stop
   offset="0.2794"
   style="stop-color:#518ECB"
   id="stop394" />
		<stop
   offset="0.9979"
   style="stop-color:#2A3185"
   id="stop396" />
	</linearGradient>
	<path
   d="m 80.35,528.075 -30.423,-56.674 18.327,-30.998 30.432,55.388 z m -29.276,-56.651 29.3,54.583 17.165,-30.223 -29.318,-53.362 z"
   id="path399"
   inkscape:connector-curvature="0"
   style="fill:url(#SVGID_2_)" />
</g>
<g
   id="g421"
   transform="translate(-44.927,-301.084)">
	<linearGradient
   id="SVGID_3_"
   gradientUnits="userSpaceOnUse"
   x1="76.987"
   y1="456.03729"
   x2="160.237"
   y2="456.03729">
		<stop
   offset="0"
   style="stop-color:#47C7F0"
   id="stop403" />
		<stop
   offset="0.2794"
   style="stop-color:#518ECB"
   id="stop405" />
		<stop
   offset="0.9979"
   style="stop-color:#2A3185"
   id="stop407" />
	</linearGradient>
	<polygon
   points="114.737,495.287 76.987,426.287 93.487,397.787 160.237,514.037 104.987,514.287 "
   id="polygon410"
   style="fill:url(#SVGID_3_)" />
	<linearGradient
   id="SVGID_4_"
   gradientUnits="userSpaceOnUse"
   x1="76.413498"
   y1="455.78879"
   x2="161.0985"
   y2="455.78879">
		<stop
   offset="0"
   style="stop-color:#47C7F0"
   id="stop412" />
		<stop
   offset="0.2794"
   style="stop-color:#518ECB"
   id="stop414" />
		<stop
   offset="0.9979"
   style="stop-color:#2A3185"
   id="stop416" />
	</linearGradient>
	<path
   d="m 104.167,514.791 10.004,-19.497 -37.758,-69.014 17.076,-29.494 67.609,117.747 z m -26.606,-88.497 37.742,68.986 -9.496,18.503 53.568,-0.242 -65.89,-114.753 z"
   id="path419"
   inkscape:connector-curvature="0"
   style="fill:url(#SVGID_4_)" />
</g>
<g
   id="g432"
   transform="translate(-44.927,-301.084)">
	<linearGradient
   id="SVGID_5_"
   gradientUnits="userSpaceOnUse"
   x1="102.1537"
   y1="411.70401"
   x2="211.1537"
   y2="411.70401">
		<stop
   offset="0"
   style="stop-color:#47C7F0"
   id="stop423" />
		<stop
   offset="0.2794"
   style="stop-color:#518ECB"
   id="stop425" />
		<stop
   offset="0.9979"
   style="stop-color:#2A3185"
   id="stop427" />
	</linearGradient>
	<polygon
   points="177.82,514.287 102.154,382.121 144.82,309.121 160.237,338.787 134.154,382.121 211.154,514.287 "
   id="polygon430"
   style="fill:url(#SVGID_5_)" />
</g>
<g
   id="g443"
   transform="translate(-44.927,-301.084)">
	<linearGradient
   id="SVGID_6_"
   gradientUnits="userSpaceOnUse"
   x1="151.8203"
   y1="427.78729"
   x2="239.1403"
   y2="427.78729">
		<stop
   offset="0"
   style="stop-color:#47C7F0"
   id="stop434" />
		<stop
   offset="0.2794"
   style="stop-color:#518ECB"
   id="stop436" />
		<stop
   offset="0.9979"
   style="stop-color:#2A3185"
   id="stop438" />
	</linearGradient>
	<polygon
   points="221.82,503.121 151.82,379.787 168.487,352.454 239.14,475.454 "
   id="polygon441"
   style="fill:url(#SVGID_6_)" />
</g>
<g
   id="g607"
   transform="translate(-44.927,-301.084)">
	<linearGradient
   id="SVGID_7_"
   gradientUnits="userSpaceOnUse"
   x1="263.33261"
   y1="334.05051"
   x2="319.0574"
   y2="334.05051">
		<stop
   offset="0"
   style="stop-color:#47C7F0"
   id="stop445" />
		<stop
   offset="0.2794"
   style="stop-color:#518ECB"
   id="stop447" />
		<stop
   offset="0.9979"
   style="stop-color:#2A3185"
   id="stop449" />
	</linearGradient>
	<path
   d="m 263.658,334.051 c 0.602,-4.06 1.816,-7.793 3.646,-11.202 1.829,-3.408 4.135,-6.353 6.917,-8.834 2.782,-2.481 5.951,-4.423 9.51,-5.826 3.558,-1.403 7.368,-2.105 11.428,-2.105 4.06,0 7.68,0.703 10.863,2.105 3.183,1.403 5.801,3.345 7.856,5.826 2.055,2.481 3.521,5.426 4.398,8.834 0.876,3.409 1.015,7.142 0.414,11.202 -0.553,4.06 -1.742,7.807 -3.571,11.24 -1.83,3.434 -4.135,6.391 -6.917,8.872 -2.782,2.481 -5.953,4.411 -9.511,5.789 -3.559,1.378 -7.368,2.067 -11.427,2.067 -4.06,0 -7.682,-0.689 -10.864,-2.067 -3.184,-1.378 -5.815,-3.308 -7.894,-5.789 -2.08,-2.481 -3.546,-5.438 -4.398,-8.872 -0.852,-3.433 -1.002,-7.18 -0.45,-11.24 z m 4.962,0 c -0.451,3.308 -0.351,6.391 0.301,9.248 0.651,2.857 1.804,5.338 3.458,7.443 1.654,2.105 3.784,3.759 6.39,4.962 2.605,1.203 5.639,1.804 9.097,1.804 3.458,0 6.665,-0.602 9.623,-1.804 2.957,-1.203 5.563,-2.857 7.819,-4.962 2.256,-2.105 4.109,-4.586 5.563,-7.443 1.453,-2.857 2.406,-5.939 2.856,-9.248 0.451,-3.308 0.363,-6.39 -0.263,-9.247 -0.627,-2.857 -1.767,-5.338 -3.421,-7.443 -1.654,-2.105 -3.797,-3.759 -6.428,-4.962 -2.631,-1.203 -5.676,-1.804 -9.134,-1.804 -3.458,0 -6.667,0.601 -9.623,1.804 -2.958,1.203 -5.563,2.857 -7.819,4.962 -2.256,2.105 -4.11,4.586 -5.563,7.443 -1.453,2.856 -2.405,5.939 -2.856,9.247 z"
   id="path452"
   inkscape:connector-curvature="0"
   style="fill:url(#SVGID_7_)" />
	<linearGradient
   id="SVGID_8_"
   gradientUnits="userSpaceOnUse"
   x1="321.3974"
   y1="351.41769"
   x2="363.3215"
   y2="351.41769">
		<stop
   offset="0"
   style="stop-color:#47C7F0"
   id="stop454" />
		<stop
   offset="0.2794"
   style="stop-color:#518ECB"
   id="stop456" />
		<stop
   offset="0.9979"
   style="stop-color:#2A3185"
   id="stop458" />
	</linearGradient>
	<path
   d="m 328.689,325.931 h 4.511 l -0.826,6.089 h 0.15 c 0.852,-1.203 1.866,-2.242 3.044,-3.12 1.178,-0.876 2.431,-1.603 3.76,-2.18 1.327,-0.576 2.681,-1.002 4.06,-1.278 1.379,-0.275 2.719,-0.414 4.021,-0.414 2.656,0 5.037,0.451 7.143,1.353 2.105,0.902 3.859,2.168 5.264,3.797 1.402,1.629 2.393,3.559 2.969,5.789 0.576,2.23 0.689,4.674 0.338,7.33 -0.4,2.657 -1.201,5.101 -2.404,7.33 -1.203,2.231 -2.732,4.161 -4.586,5.789 -1.855,1.629 -3.961,2.895 -6.316,3.796 -2.355,0.902 -4.861,1.354 -7.518,1.354 -1.305,0 -2.607,-0.139 -3.91,-0.414 -1.304,-0.276 -2.544,-0.701 -3.721,-1.278 -1.179,-0.576 -2.231,-1.303 -3.158,-2.18 -0.928,-0.876 -1.642,-1.917 -2.143,-3.12 h -0.15 l -3.308,23.231 h -4.511 z m 1.655,17.367 c -0.301,1.955 -0.201,3.796 0.301,5.526 0.5,1.729 1.315,3.232 2.443,4.511 1.128,1.278 2.519,2.293 4.173,3.045 1.653,0.751 3.507,1.127 5.562,1.127 2.105,0 4.061,-0.376 5.865,-1.127 1.805,-0.752 3.395,-1.767 4.773,-3.045 1.379,-1.278 2.506,-2.782 3.383,-4.511 0.877,-1.729 1.467,-3.571 1.768,-5.526 0.301,-1.955 0.25,-3.797 -0.15,-5.526 -0.402,-1.729 -1.104,-3.233 -2.105,-4.511 -1.004,-1.278 -2.307,-2.293 -3.91,-3.045 -1.603,-0.752 -3.457,-1.128 -5.562,-1.128 -2.057,0 -4.021,0.376 -5.902,1.128 -1.879,0.752 -3.559,1.767 -5.037,3.045 -1.479,1.278 -2.706,2.782 -3.684,4.511 -0.978,1.729 -1.618,3.572 -1.918,5.526 z"
   id="path461"
   inkscape:connector-curvature="0"
   style="fill:url(#SVGID_8_)" />
	<linearGradient
   id="SVGID_9_"
   gradientUnits="userSpaceOnUse"
   x1="370.9812"
   y1="343.2981"
   x2="405.41"
   y2="343.2981">
		<stop
   offset="0"
   style="stop-color:#47C7F0"
   id="stop463" />
		<stop
   offset="0.2794"
   style="stop-color:#518ECB"
   id="stop465" />
		<stop
   offset="0.9979"
   style="stop-color:#2A3185"
   id="stop467" />
	</linearGradient>
	<path
   d="m 402.367,354.124 c -2.156,2.657 -4.6,4.561 -7.33,5.713 -2.732,1.152 -5.652,1.729 -8.759,1.729 -2.657,0 -5,-0.451 -7.029,-1.354 -2.03,-0.902 -3.71,-2.167 -5.037,-3.796 -1.329,-1.628 -2.256,-3.558 -2.782,-5.789 -0.526,-2.229 -0.59,-4.699 -0.188,-7.405 0.35,-2.605 1.114,-5.011 2.293,-7.217 1.177,-2.205 2.656,-4.122 4.436,-5.751 1.778,-1.628 3.783,-2.906 6.015,-3.834 2.229,-0.927 4.623,-1.391 7.18,-1.391 2.656,0 4.936,0.464 6.842,1.391 1.903,0.928 3.445,2.156 4.623,3.684 1.177,1.529 1.979,3.271 2.406,5.225 0.425,1.955 0.488,3.935 0.188,5.939 l -0.451,3.157 h -29.17 c -0.15,0.953 -0.139,2.168 0.037,3.646 0.176,1.479 0.664,2.92 1.467,4.323 0.801,1.404 1.966,2.607 3.495,3.609 1.528,1.003 3.621,1.503 6.278,1.503 2.305,0 4.623,-0.551 6.954,-1.654 2.33,-1.102 4.197,-2.605 5.601,-4.511 z m -1.579,-13.758 c 0.199,-1.553 0.1,-3.007 -0.301,-4.36 -0.401,-1.354 -1.078,-2.543 -2.03,-3.571 -0.952,-1.027 -2.117,-1.842 -3.495,-2.443 -1.38,-0.602 -2.895,-0.902 -4.549,-0.902 -2.456,0 -4.574,0.502 -6.353,1.504 -1.78,1.003 -3.246,2.155 -4.398,3.458 -1.153,1.304 -2.018,2.569 -2.594,3.797 -0.577,1.229 -0.891,2.067 -0.939,2.519 h 24.659 z"
   id="path470"
   inkscape:connector-curvature="0"
   style="fill:url(#SVGID_9_)" />
	<linearGradient
   id="SVGID_10_"
   gradientUnits="userSpaceOnUse"
   x1="412.59171"
   y1="342.84689"
   x2="445.4884"
   y2="342.84689">
		<stop
   offset="0"
   style="stop-color:#47C7F0"
   id="stop472" />
		<stop
   offset="0.2794"
   style="stop-color:#518ECB"
   id="stop474" />
		<stop
   offset="0.9979"
   style="stop-color:#2A3185"
   id="stop476" />
	</linearGradient>
	<path
   d="m 416.05,335.705 c 0.1,-0.651 0.2,-1.44 0.301,-2.368 0.1,-0.927 0.188,-1.867 0.264,-2.819 0.075,-0.952 0.15,-1.842 0.225,-2.669 0.075,-0.827 0.138,-1.466 0.188,-1.917 h 4.511 c -0.101,1.304 -0.226,2.556 -0.376,3.759 -0.15,1.203 -0.201,1.98 -0.15,2.331 h 0.226 c 0.602,-0.951 1.341,-1.854 2.218,-2.707 0.877,-0.852 1.867,-1.59 2.97,-2.218 1.102,-0.626 2.305,-1.127 3.608,-1.503 1.303,-0.376 2.656,-0.564 4.061,-0.564 2.706,0 4.86,0.426 6.465,1.278 1.604,0.853 2.794,1.968 3.571,3.346 0.776,1.379 1.215,2.97 1.315,4.774 0.101,1.805 0.025,3.659 -0.226,5.563 l -2.856,20.675 h -4.511 l 2.856,-20.449 c 0.2,-1.403 0.275,-2.769 0.226,-4.097 -0.05,-1.328 -0.326,-2.519 -0.827,-3.571 -0.501,-1.052 -1.266,-1.891 -2.293,-2.519 -1.027,-0.626 -2.443,-0.94 -4.247,-0.94 -1.654,0 -3.259,0.289 -4.812,0.865 -1.555,0.577 -2.958,1.454 -4.211,2.631 -1.253,1.178 -2.318,2.657 -3.194,4.436 -0.878,1.78 -1.492,3.872 -1.843,6.278 l -2.405,17.367 h -4.511 z"
   id="path479"
   inkscape:connector-curvature="0"
   style="fill:url(#SVGID_10_)" />
	<linearGradient
   id="SVGID_11_"
   gradientUnits="userSpaceOnUse"
   x1="261.02679"
   y1="411.08331"
   x2="299.82019"
   y2="411.08331">
		<stop
   offset="0"
   style="stop-color:#47C7F0"
   id="stop481" />
		<stop
   offset="0.2794"
   style="stop-color:#518ECB"
   id="stop483" />
		<stop
   offset="0.9979"
   style="stop-color:#2A3185"
   id="stop485" />
	</linearGradient>
	<path
   d="m 266.214,427.848 c 1.002,2.255 2.455,3.936 4.36,5.037 1.904,1.103 4.185,1.654 6.842,1.654 1.654,0 3.244,-0.251 4.774,-0.752 1.528,-0.501 2.895,-1.203 4.097,-2.105 1.203,-0.902 2.205,-1.992 3.007,-3.271 0.801,-1.277 1.328,-2.718 1.579,-4.322 0.25,-1.854 0.075,-3.384 -0.526,-4.586 -0.602,-1.203 -1.492,-2.192 -2.669,-2.97 -1.178,-0.776 -2.556,-1.44 -4.135,-1.992 -1.579,-0.552 -3.183,-1.103 -4.812,-1.654 -1.629,-0.551 -3.221,-1.177 -4.774,-1.88 -1.554,-0.701 -2.895,-1.616 -4.022,-2.744 -1.128,-1.128 -1.968,-2.543 -2.519,-4.247 -0.552,-1.704 -0.652,-3.809 -0.301,-6.315 0.35,-2.355 1.127,-4.447 2.331,-6.277 1.203,-1.829 2.681,-3.357 4.436,-4.587 1.754,-1.228 3.696,-2.154 5.827,-2.781 2.129,-0.626 4.323,-0.939 6.578,-0.939 2.906,0 5.526,0.515 7.856,1.541 2.331,1.027 4.222,2.744 5.676,5.149 l -4.736,3.083 c -1.003,-1.754 -2.281,-3.069 -3.834,-3.947 -1.554,-0.876 -3.484,-1.315 -5.789,-1.315 -1.605,0 -3.158,0.214 -4.662,0.639 -1.503,0.427 -2.857,1.053 -4.06,1.88 -1.203,0.827 -2.218,1.867 -3.045,3.12 -0.827,1.253 -1.366,2.732 -1.616,4.436 -0.301,2.005 -0.139,3.646 0.489,4.924 0.626,1.278 1.515,2.331 2.669,3.158 1.152,0.827 2.519,1.503 4.097,2.029 1.578,0.526 3.182,1.053 4.812,1.579 1.628,0.526 3.22,1.116 4.774,1.767 1.553,0.652 2.906,1.517 4.06,2.594 1.152,1.078 2.004,2.443 2.556,4.098 0.551,1.654 0.65,3.734 0.3,6.24 -0.351,2.405 -1.116,4.536 -2.293,6.39 -1.178,1.855 -2.62,3.421 -4.323,4.699 -1.705,1.278 -3.597,2.244 -5.676,2.895 -2.08,0.65 -4.198,0.978 -6.353,0.978 -3.509,0 -6.667,-0.614 -9.473,-1.842 -2.807,-1.228 -5.037,-3.296 -6.691,-6.203 z"
   id="path488"
   inkscape:connector-curvature="0"
   style="fill:url(#SVGID_11_)" />
	<linearGradient
   id="SVGID_12_"
   gradientUnits="userSpaceOnUse"
   x1="304.1655"
   y1="420.33029"
   x2="341.14359"
   y2="420.33029">
		<stop
   offset="0"
   style="stop-color:#47C7F0"
   id="stop490" />
		<stop
   offset="0.2794"
   style="stop-color:#518ECB"
   id="stop492" />
		<stop
   offset="0.9979"
   style="stop-color:#2A3185"
   id="stop494" />
	</linearGradient>
	<path
   d="m 304.406,420.33 c 0.35,-2.655 1.14,-5.099 2.369,-7.33 1.228,-2.229 2.756,-4.159 4.586,-5.789 1.829,-1.628 3.934,-2.894 6.314,-3.796 2.38,-0.902 4.898,-1.354 7.556,-1.354 2.656,0 5.037,0.451 7.143,1.354 2.106,0.903 3.859,2.168 5.263,3.796 1.402,1.63 2.393,3.56 2.97,5.789 0.576,2.231 0.688,4.675 0.339,7.33 -0.402,2.657 -1.203,5.101 -2.406,7.33 -1.203,2.231 -2.732,4.161 -4.586,5.789 -1.855,1.63 -3.96,2.895 -6.315,3.797 -2.356,0.902 -4.862,1.354 -7.519,1.354 -2.657,0 -5.05,-0.451 -7.18,-1.354 -2.131,-0.902 -3.885,-2.167 -5.263,-3.797 -1.379,-1.628 -2.368,-3.558 -2.97,-5.789 -0.601,-2.23 -0.702,-4.673 -0.301,-7.33 z m 4.511,0 c -0.301,1.955 -0.251,3.797 0.15,5.526 0.4,1.729 1.102,3.232 2.105,4.511 1.002,1.278 2.305,2.293 3.909,3.045 1.604,0.752 3.459,1.128 5.563,1.128 2.105,0 4.061,-0.376 5.864,-1.128 1.805,-0.752 3.396,-1.767 4.774,-3.045 1.378,-1.278 2.506,-2.782 3.383,-4.511 0.876,-1.729 1.466,-3.571 1.767,-5.526 0.301,-1.954 0.25,-3.796 -0.15,-5.525 -0.401,-1.729 -1.103,-3.232 -2.104,-4.511 -1.004,-1.278 -2.307,-2.293 -3.91,-3.045 -1.604,-0.752 -3.458,-1.128 -5.562,-1.128 -2.105,0 -4.061,0.376 -5.864,1.128 -1.805,0.752 -3.396,1.767 -4.774,3.045 -1.379,1.278 -2.507,2.781 -3.383,4.511 -0.878,1.729 -1.467,3.571 -1.768,5.525 z"
   id="path497"
   inkscape:connector-curvature="0"
   style="fill:url(#SVGID_12_)" />
	<linearGradient
   id="SVGID_13_"
   gradientUnits="userSpaceOnUse"
   x1="349.92291"
   y1="420.78149"
   x2="382.82019"
   y2="420.78149">
		<stop
   offset="0"
   style="stop-color:#47C7F0"
   id="stop499" />
		<stop
   offset="0.2794"
   style="stop-color:#518ECB"
   id="stop501" />
		<stop
   offset="0.9979"
   style="stop-color:#2A3185"
   id="stop503" />
	</linearGradient>
	<path
   d="m 379.362,427.924 c -0.102,0.652 -0.201,1.441 -0.301,2.368 -0.102,0.928 -0.188,1.868 -0.264,2.819 -0.075,0.952 -0.15,1.842 -0.226,2.669 -0.076,0.827 -0.138,1.466 -0.188,1.917 h -4.511 c 0.1,-1.303 0.226,-2.557 0.376,-3.759 0.15,-1.203 0.199,-1.979 0.15,-2.331 h -0.226 c -0.602,0.953 -1.342,1.855 -2.218,2.707 -0.878,0.853 -1.868,1.592 -2.97,2.218 -1.104,0.627 -2.306,1.128 -3.608,1.503 -1.305,0.376 -2.657,0.564 -4.061,0.564 -2.706,0 -4.861,-0.427 -6.465,-1.278 -1.605,-0.852 -2.795,-1.967 -3.571,-3.346 -0.778,-1.378 -1.216,-2.97 -1.315,-4.773 -0.102,-1.805 -0.026,-3.658 0.226,-5.563 l 2.856,-20.675 h 4.511 l -2.856,20.449 c -0.201,1.403 -0.276,2.77 -0.226,4.097 0.049,1.329 0.325,2.519 0.827,3.571 0.5,1.053 1.265,1.893 2.293,2.519 1.026,0.628 2.443,0.94 4.247,0.94 1.654,0 3.258,-0.288 4.812,-0.865 1.554,-0.575 2.957,-1.453 4.21,-2.631 1.253,-1.177 2.318,-2.656 3.195,-4.436 0.877,-1.78 1.491,-3.872 1.842,-6.278 l 2.406,-17.366 h 4.511 z"
   id="path506"
   inkscape:connector-curvature="0"
   style="fill:url(#SVGID_13_)" />
	<linearGradient
   id="SVGID_14_"
   gradientUnits="userSpaceOnUse"
   x1="390.41299"
   y1="419.87921"
   x2="413.41791"
   y2="419.87921">
		<stop
   offset="0"
   style="stop-color:#47C7F0"
   id="stop508" />
		<stop
   offset="0.2794"
   style="stop-color:#518ECB"
   id="stop510" />
		<stop
   offset="0.9979"
   style="stop-color:#2A3185"
   id="stop512" />
	</linearGradient>
	<path
   d="m 393.871,412.737 c 0.1,-0.651 0.2,-1.44 0.301,-2.368 0.1,-0.927 0.188,-1.867 0.264,-2.819 0.075,-0.951 0.15,-1.842 0.225,-2.669 0.075,-0.827 0.138,-1.466 0.188,-1.917 h 4.511 c -0.101,1.304 -0.226,2.556 -0.376,3.759 -0.15,1.203 -0.201,1.98 -0.15,2.331 1.453,-2.055 3.17,-3.733 5.15,-5.037 1.979,-1.303 4.272,-1.955 6.879,-1.955 0.801,0 1.654,0.126 2.556,0.376 l -1.127,4.436 c -0.553,-0.199 -1.104,-0.301 -1.654,-0.301 -1.955,0 -3.684,0.313 -5.188,0.939 -1.504,0.628 -2.808,1.492 -3.909,2.594 -1.104,1.104 -1.98,2.395 -2.632,3.872 -0.651,1.479 -1.103,3.071 -1.354,4.774 l -2.631,18.945 h -4.511 z"
   id="path515"
   inkscape:connector-curvature="0"
   style="fill:url(#SVGID_14_)" />
	<linearGradient
   id="SVGID_15_"
   gradientUnits="userSpaceOnUse"
   x1="414.3056"
   y1="420.33029"
   x2="447.47549"
   y2="420.33029">
		<stop
   offset="0"
   style="stop-color:#47C7F0"
   id="stop517" />
		<stop
   offset="0.2794"
   style="stop-color:#518ECB"
   id="stop519" />
		<stop
   offset="0.9979"
   style="stop-color:#2A3185"
   id="stop521" />
	</linearGradient>
	<path
   d="m 443.867,432.585 c -2.005,2.056 -4.147,3.571 -6.428,4.549 -2.281,0.977 -4.675,1.466 -7.18,1.466 -2.657,0 -5.051,-0.451 -7.18,-1.354 -2.131,-0.902 -3.885,-2.167 -5.263,-3.797 -1.38,-1.628 -2.368,-3.558 -2.97,-5.789 -0.602,-2.229 -0.703,-4.673 -0.301,-7.33 0.35,-2.655 1.14,-5.099 2.368,-7.33 1.228,-2.229 2.756,-4.159 4.586,-5.789 1.829,-1.628 3.934,-2.894 6.315,-3.796 2.38,-0.902 4.898,-1.354 7.556,-1.354 2.556,0 4.849,0.526 6.879,1.579 2.029,1.052 3.771,2.531 5.225,4.436 l -3.984,2.706 c -1.153,-1.453 -2.432,-2.594 -3.834,-3.421 -1.404,-0.826 -3.008,-1.24 -4.812,-1.24 -2.105,0 -4.06,0.376 -5.864,1.128 -1.804,0.752 -3.396,1.767 -4.774,3.045 -1.379,1.278 -2.507,2.781 -3.383,4.511 -0.878,1.729 -1.466,3.571 -1.767,5.525 -0.301,1.955 -0.252,3.797 0.15,5.526 0.4,1.729 1.102,3.232 2.104,4.511 1.002,1.278 2.305,2.293 3.91,3.045 1.604,0.752 3.458,1.128 5.563,1.128 1.903,0 3.708,-0.438 5.413,-1.316 1.703,-0.876 3.232,-2.041 4.586,-3.495 z"
   id="path524"
   inkscape:connector-curvature="0"
   style="fill:url(#SVGID_15_)" />
	<linearGradient
   id="SVGID_16_"
   gradientUnits="userSpaceOnUse"
   x1="450.44711"
   y1="420.33029"
   x2="484.87589"
   y2="420.33029">
		<stop
   offset="0"
   style="stop-color:#47C7F0"
   id="stop526" />
		<stop
   offset="0.2794"
   style="stop-color:#518ECB"
   id="stop528" />
		<stop
   offset="0.9979"
   style="stop-color:#2A3185"
   id="stop530" />
	</linearGradient>
	<path
   d="m 481.833,431.156 c -2.156,2.657 -4.6,4.562 -7.33,5.714 -2.732,1.152 -5.652,1.729 -8.759,1.729 -2.657,0 -5,-0.451 -7.029,-1.354 -2.03,-0.902 -3.71,-2.167 -5.037,-3.797 -1.329,-1.628 -2.256,-3.558 -2.782,-5.789 -0.526,-2.229 -0.59,-4.698 -0.188,-7.405 0.35,-2.605 1.114,-5.011 2.293,-7.217 1.177,-2.205 2.656,-4.122 4.436,-5.752 1.778,-1.628 3.783,-2.906 6.015,-3.834 2.229,-0.927 4.623,-1.391 7.18,-1.391 2.656,0 4.936,0.464 6.842,1.391 1.903,0.928 3.445,2.156 4.623,3.684 1.177,1.53 1.979,3.271 2.406,5.226 0.425,1.955 0.488,3.936 0.188,5.939 l -0.451,3.157 h -29.17 c -0.15,0.953 -0.139,2.169 0.037,3.646 0.176,1.479 0.664,2.92 1.467,4.323 0.801,1.403 1.966,2.606 3.495,3.608 1.528,1.003 3.621,1.504 6.278,1.504 2.305,0 4.623,-0.552 6.954,-1.654 2.33,-1.102 4.197,-2.605 5.601,-4.511 z m -1.579,-13.758 c 0.199,-1.553 0.1,-3.007 -0.301,-4.36 -0.401,-1.354 -1.078,-2.543 -2.03,-3.571 -0.952,-1.026 -2.117,-1.842 -3.495,-2.443 -1.38,-0.602 -2.895,-0.902 -4.549,-0.902 -2.456,0 -4.574,0.502 -6.353,1.504 -1.78,1.003 -3.246,2.155 -4.398,3.458 -1.153,1.304 -2.018,2.569 -2.594,3.797 -0.577,1.229 -0.891,2.067 -0.939,2.519 h 24.659 z"
   id="path533"
   inkscape:connector-curvature="0"
   style="fill:url(#SVGID_16_)" />
	<linearGradient
   id="SVGID_17_"
   gradientUnits="userSpaceOnUse"
   x1="262.90619"
   y1="488.11499"
   x2="323.6532"
   y2="488.11499">
		<stop
   offset="0"
   style="stop-color:#47C7F0"
   id="stop535" />
		<stop
   offset="0.2794"
   style="stop-color:#518ECB"
   id="stop537" />
		<stop
   offset="0.9979"
   style="stop-color:#2A3185"
   id="stop539" />
	</linearGradient>
	<path
   d="m 270.349,461.501 h 7.443 l 13.156,44.658 25.637,-44.658 h 7.067 l -7.443,53.229 h -4.962 l 6.541,-46.913 h -0.15 l -26.84,46.913 h -2.18 l -14.059,-46.913 h -0.15 l -6.541,46.913 h -4.962 z"
   id="path542"
   inkscape:connector-curvature="0"
   style="fill:url(#SVGID_17_)" />
	<linearGradient
   id="SVGID_18_"
   gradientUnits="userSpaceOnUse"
   x1="329.18121"
   y1="497.36249"
   x2="363.6095"
   y2="497.36249">
		<stop
   offset="0"
   style="stop-color:#47C7F0"
   id="stop544" />
		<stop
   offset="0.2794"
   style="stop-color:#518ECB"
   id="stop546" />
		<stop
   offset="0.9979"
   style="stop-color:#2A3185"
   id="stop548" />
	</linearGradient>
	<path
   d="m 360.567,508.188 c -2.156,2.657 -4.6,4.562 -7.33,5.714 -2.732,1.152 -5.652,1.729 -8.76,1.729 -2.656,0 -4.999,-0.451 -7.029,-1.354 -2.03,-0.903 -3.71,-2.167 -5.037,-3.797 -1.329,-1.628 -2.256,-3.558 -2.782,-5.789 -0.525,-2.229 -0.589,-4.698 -0.188,-7.405 0.35,-2.605 1.115,-5.011 2.293,-7.217 1.177,-2.205 2.656,-4.122 4.436,-5.752 1.778,-1.628 3.784,-2.906 6.015,-3.834 2.23,-0.927 4.623,-1.391 7.18,-1.391 2.656,0 4.936,0.464 6.842,1.391 1.904,0.928 3.445,2.156 4.623,3.684 1.178,1.53 1.98,3.271 2.406,5.226 0.426,1.955 0.488,3.936 0.188,5.939 l -0.451,3.157 h -29.17 c -0.15,0.953 -0.139,2.169 0.038,3.646 0.175,1.479 0.663,2.92 1.466,4.323 0.801,1.403 1.966,2.606 3.496,3.608 1.528,1.003 3.621,1.504 6.277,1.504 2.305,0 4.623,-0.552 6.955,-1.654 2.33,-1.102 4.197,-2.605 5.6,-4.511 z m -1.58,-13.758 c 0.199,-1.553 0.1,-3.007 -0.301,-4.36 -0.401,-1.353 -1.078,-2.543 -2.029,-3.571 -0.953,-1.026 -2.117,-1.842 -3.496,-2.443 -1.379,-0.601 -2.895,-0.902 -4.549,-0.902 -2.455,0 -4.574,0.502 -6.352,1.504 -1.78,1.003 -3.247,2.155 -4.399,3.458 -1.153,1.304 -2.018,2.569 -2.594,3.797 -0.576,1.229 -0.89,2.067 -0.939,2.519 h 24.659 z"
   id="path551"
   inkscape:connector-curvature="0"
   style="fill:url(#SVGID_18_)" />
	<linearGradient
   id="SVGID_19_"
   gradientUnits="userSpaceOnUse"
   x1="371.00089"
   y1="486.76199"
   x2="413.64349"
   y2="486.76199">
		<stop
   offset="0"
   style="stop-color:#47C7F0"
   id="stop553" />
		<stop
   offset="0.2794"
   style="stop-color:#518ECB"
   id="stop555" />
		<stop
   offset="0.9979"
   style="stop-color:#2A3185"
   id="stop557" />
	</linearGradient>
	<path
   d="m 401.991,508.639 h -0.15 c -0.854,1.203 -1.868,2.244 -3.045,3.12 -1.179,0.878 -2.432,1.604 -3.759,2.181 -1.329,0.576 -2.683,1.002 -4.061,1.277 -1.379,0.275 -2.719,0.414 -4.021,0.414 -2.657,0 -5.051,-0.451 -7.18,-1.354 -2.131,-0.902 -3.885,-2.167 -5.263,-3.797 -1.38,-1.628 -2.368,-3.558 -2.97,-5.789 -0.602,-2.229 -0.703,-4.673 -0.301,-7.33 0.35,-2.655 1.14,-5.099 2.368,-7.33 1.228,-2.229 2.756,-4.159 4.586,-5.789 1.829,-1.628 3.934,-2.894 6.315,-3.796 2.38,-0.902 4.898,-1.354 7.556,-1.354 1.303,0 2.605,0.139 3.909,0.413 1.303,0.276 2.543,0.703 3.722,1.278 1.177,0.577 2.218,1.304 3.12,2.181 0.901,0.877 1.628,1.917 2.18,3.12 h 0.15 l 3.984,-28.193 h 4.511 l -7.969,56.837 h -4.511 z m 2.029,-11.277 c 0.301,-1.954 0.2,-3.796 -0.301,-5.525 -0.501,-1.729 -1.315,-3.232 -2.443,-4.511 -1.127,-1.278 -2.519,-2.293 -4.172,-3.045 -1.654,-0.752 -3.509,-1.128 -5.563,-1.128 -2.105,0 -4.06,0.376 -5.864,1.128 -1.804,0.752 -3.396,1.767 -4.774,3.045 -1.379,1.278 -2.507,2.781 -3.383,4.511 -0.878,1.729 -1.466,3.571 -1.767,5.525 -0.301,1.955 -0.252,3.797 0.15,5.526 0.4,1.729 1.102,3.232 2.104,4.511 1.002,1.278 2.305,2.293 3.91,3.045 1.604,0.752 3.458,1.128 5.563,1.128 2.054,0 4.021,-0.376 5.901,-1.128 1.88,-0.752 3.558,-1.767 5.037,-3.045 1.478,-1.278 2.706,-2.782 3.684,-4.511 0.979,-1.729 1.618,-3.571 1.918,-5.526 z"
   id="path560"
   inkscape:connector-curvature="0"
   style="fill:url(#SVGID_19_)" />
	<linearGradient
   id="SVGID_20_"
   gradientUnits="userSpaceOnUse"
   x1="417.55261"
   y1="488.79169"
   x2="430.00351"
   y2="488.79169">
		<stop
   offset="0"
   style="stop-color:#47C7F0"
   id="stop562" />
		<stop
   offset="0.2794"
   style="stop-color:#518ECB"
   id="stop564" />
		<stop
   offset="0.9979"
   style="stop-color:#2A3185"
   id="stop566" />
	</linearGradient>
	<path
   d="m 422.364,479.996 h 4.511 l -4.812,34.733 h -4.511 z m 0.827,-13.759 c 0.15,-0.951 0.588,-1.753 1.315,-2.405 0.726,-0.65 1.565,-0.978 2.519,-0.978 0.951,0 1.716,0.327 2.293,0.978 0.575,0.652 0.789,1.454 0.639,2.405 -0.101,0.953 -0.526,1.756 -1.278,2.406 -0.751,0.652 -1.604,0.978 -2.556,0.978 -0.953,0 -1.704,-0.325 -2.256,-0.978 -0.552,-0.65 -0.777,-1.453 -0.676,-2.406 z"
   id="path569"
   inkscape:connector-curvature="0"
   style="fill:url(#SVGID_20_)" />
	<linearGradient
   id="SVGID_21_"
   gradientUnits="userSpaceOnUse"
   x1="435.05359"
   y1="497.36249"
   x2="468.22351"
   y2="497.36249">
		<stop
   offset="0"
   style="stop-color:#47C7F0"
   id="stop571" />
		<stop
   offset="0.2794"
   style="stop-color:#518ECB"
   id="stop573" />
		<stop
   offset="0.9979"
   style="stop-color:#2A3185"
   id="stop575" />
	</linearGradient>
	<path
   d="m 464.615,509.617 c -2.005,2.056 -4.147,3.571 -6.428,4.549 -2.281,0.977 -4.675,1.466 -7.18,1.466 -2.657,0 -5.051,-0.451 -7.18,-1.354 -2.131,-0.902 -3.885,-2.167 -5.263,-3.797 -1.38,-1.628 -2.368,-3.558 -2.97,-5.789 -0.602,-2.229 -0.703,-4.673 -0.301,-7.33 0.35,-2.655 1.14,-5.099 2.368,-7.33 1.228,-2.229 2.756,-4.159 4.586,-5.789 1.829,-1.628 3.934,-2.894 6.315,-3.796 2.38,-0.902 4.898,-1.354 7.556,-1.354 2.556,0 4.849,0.526 6.879,1.579 2.029,1.052 3.771,2.531 5.225,4.436 l -3.984,2.706 c -1.153,-1.453 -2.432,-2.594 -3.834,-3.421 -1.404,-0.826 -3.008,-1.24 -4.812,-1.24 -2.105,0 -4.06,0.376 -5.864,1.128 -1.804,0.752 -3.396,1.767 -4.774,3.045 -1.379,1.278 -2.507,2.781 -3.383,4.511 -0.878,1.729 -1.466,3.571 -1.767,5.525 -0.301,1.955 -0.252,3.797 0.15,5.526 0.4,1.729 1.102,3.232 2.104,4.511 1.002,1.278 2.305,2.293 3.91,3.045 1.604,0.752 3.458,1.128 5.563,1.128 1.903,0 3.708,-0.438 5.413,-1.316 1.703,-0.876 3.232,-2.041 4.586,-3.495 z"
   id="path578"
   inkscape:connector-curvature="0"
   style="fill:url(#SVGID_21_)" />
	<linearGradient
   id="SVGID_22_"
   gradientUnits="userSpaceOnUse"
   x1="471.75671"
   y1="488.79169"
   x2="484.20761"
   y2="488.79169">
		<stop
   offset="0"
   style="stop-color:#47C7F0"
   id="stop580" />
		<stop
   offset="0.2794"
   style="stop-color:#518ECB"
   id="stop582" />
		<stop
   offset="0.9979"
   style="stop-color:#2A3185"
   id="stop584" />
	</linearGradient>
	<path
   d="m 476.568,479.996 h 4.511 l -4.812,34.733 h -4.511 z m 0.827,-13.759 c 0.15,-0.951 0.588,-1.753 1.315,-2.405 0.726,-0.65 1.565,-0.978 2.519,-0.978 0.951,0 1.716,0.327 2.293,0.978 0.575,0.652 0.789,1.454 0.639,2.405 -0.101,0.953 -0.526,1.756 -1.278,2.406 -0.751,0.652 -1.604,0.978 -2.556,0.978 -0.953,0 -1.704,-0.325 -2.256,-0.978 -0.552,-0.65 -0.777,-1.453 -0.676,-2.406 z"
   id="path587"
   inkscape:connector-curvature="0"
   style="fill:url(#SVGID_22_)" />
	<linearGradient
   id="SVGID_23_"
   gradientUnits="userSpaceOnUse"
   x1="489.04681"
   y1="496.91141"
   x2="521.94348"
   y2="496.91141">
		<stop
   offset="0"
   style="stop-color:#47C7F0"
   id="stop589" />
		<stop
   offset="0.2794"
   style="stop-color:#518ECB"
   id="stop591" />
		<stop
   offset="0.9979"
   style="stop-color:#2A3185"
   id="stop593" />
	</linearGradient>
	<path
   d="m 492.505,489.769 c 0.1,-0.651 0.2,-1.44 0.301,-2.368 0.1,-0.927 0.188,-1.867 0.264,-2.819 0.075,-0.951 0.15,-1.842 0.225,-2.669 0.075,-0.827 0.138,-1.466 0.188,-1.917 h 4.511 c -0.101,1.304 -0.226,2.556 -0.376,3.759 -0.15,1.203 -0.201,1.98 -0.15,2.331 h 0.226 c 0.602,-0.952 1.341,-1.854 2.218,-2.707 0.877,-0.852 1.867,-1.591 2.97,-2.218 1.102,-0.626 2.305,-1.128 3.608,-1.504 1.303,-0.376 2.656,-0.563 4.061,-0.563 2.706,0 4.86,0.427 6.465,1.278 1.604,0.853 2.794,1.968 3.571,3.346 0.776,1.379 1.215,2.969 1.315,4.773 0.1,1.804 0.025,3.659 -0.226,5.563 l -2.856,20.675 h -4.511 l 2.856,-20.449 c 0.2,-1.402 0.275,-2.769 0.226,-4.098 -0.05,-1.327 -0.326,-2.519 -0.827,-3.571 -0.501,-1.052 -1.266,-1.891 -2.293,-2.519 -1.027,-0.626 -2.443,-0.939 -4.247,-0.939 -1.654,0 -3.259,0.289 -4.812,0.865 -1.555,0.576 -2.958,1.454 -4.211,2.631 -1.253,1.178 -2.318,2.657 -3.194,4.436 -0.878,1.78 -1.492,3.872 -1.843,6.277 l -2.405,17.367 h -4.511 z"
   id="path596"
   inkscape:connector-curvature="0"
   style="fill:url(#SVGID_23_)" />
	<linearGradient
   id="SVGID_24_"
   gradientUnits="userSpaceOnUse"
   x1="531.03778"
   y1="497.36249"
   x2="565.46667"
   y2="497.36249">
		<stop
   offset="0"
   style="stop-color:#47C7F0"
   id="stop598" />
		<stop
   offset="0.2794"
   style="stop-color:#518ECB"
   id="stop600" />
		<stop
   offset="0.9979"
   style="stop-color:#2A3185"
   id="stop602" />
	</linearGradient>
	<path
   d="m 562.424,508.188 c -2.156,2.657 -4.6,4.562 -7.33,5.714 -2.732,1.152 -5.652,1.729 -8.759,1.729 -2.657,0 -5,-0.451 -7.029,-1.354 -2.03,-0.902 -3.71,-2.167 -5.037,-3.797 -1.329,-1.628 -2.256,-3.558 -2.782,-5.789 -0.526,-2.229 -0.59,-4.698 -0.188,-7.405 0.35,-2.605 1.114,-5.011 2.293,-7.217 1.177,-2.205 2.656,-4.122 4.436,-5.752 1.778,-1.628 3.783,-2.906 6.015,-3.834 2.229,-0.927 4.623,-1.391 7.18,-1.391 2.656,0 4.936,0.464 6.842,1.391 1.903,0.928 3.445,2.156 4.623,3.684 1.177,1.53 1.979,3.271 2.406,5.226 0.425,1.955 0.488,3.936 0.188,5.939 l -0.451,3.157 h -29.17 c -0.15,0.953 -0.139,2.169 0.037,3.646 0.176,1.479 0.664,2.92 1.467,4.323 0.801,1.403 1.966,2.606 3.495,3.608 1.528,1.003 3.621,1.504 6.278,1.504 2.305,0 4.623,-0.552 6.954,-1.654 2.33,-1.102 4.197,-2.605 5.601,-4.511 z m -1.579,-13.758 c 0.199,-1.553 0.1,-3.007 -0.301,-4.36 -0.401,-1.354 -1.078,-2.543 -2.03,-3.571 -0.952,-1.026 -2.117,-1.842 -3.495,-2.443 -1.38,-0.602 -2.895,-0.902 -4.549,-0.902 -2.456,0 -4.574,0.502 -6.353,1.504 -1.78,1.003 -3.246,2.155 -4.398,3.458 -1.153,1.304 -2.018,2.569 -2.594,3.797 -0.577,1.229 -0.891,2.067 -0.939,2.519 h 24.659 z"
   id="path605"
   inkscape:connector-curvature="0"
   style="fill:url(#SVGID_24_)" />
</g>
</svg>