<?xml version="1.0" encoding="UTF-8" standalone="no"?>
<!-- Generator: Adobe Illustrator 17.0.0, SVG Export Plug-In . SVG Version: 6.00 Build 0)  -->

<svg
   xmlns:dc="http://purl.org/dc/elements/1.1/"
   xmlns:cc="http://creativecommons.org/ns#"
   xmlns:rdf="http://www.w3.org/1999/02/22-rdf-syntax-ns#"
   xmlns:svg="http://www.w3.org/2000/svg"
   xmlns="http://www.w3.org/2000/svg"
   xmlns:sodipodi="http://sodipodi.sourceforge.net/DTD/sodipodi-0.dtd"
   xmlns:inkscape="http://www.inkscape.org/namespaces/inkscape"
   version="1.1"
   id="Layer_1"
   x="0px"
   y="0px"
   width="189.213"
   height="218.95399"
   viewBox="0 0 189.213 218.95399"
   enable-background="new 0 0 612 792"
   xml:space="preserve"
   sodipodi:docname="logo_solo_bco.svg"
   inkscape:version="0.92.4 (5da689c313, 2019-01-14)"><metadata
   id="metadata3899"><rdf:RDF><cc:Work
       rdf:about=""><dc:format>image/svg+xml</dc:format><dc:type
         rdf:resource="http://purl.org/dc/dcmitype/StillImage" /><dc:title></dc:title></cc:Work></rdf:RDF></metadata><defs
   id="defs3897" /><sodipodi:namedview
   pagecolor="#ffffff"
   bordercolor="#666666"
   borderopacity="1"
   objecttolerance="10"
   gridtolerance="10"
   guidetolerance="10"
   inkscape:pageopacity="0"
   inkscape:pageshadow="2"
   inkscape:window-width="2560"
   inkscape:window-height="1385"
   id="namedview3895"
   showgrid="false"
   inkscape:zoom="1.4873737"
   inkscape:cx="12.354833"
   inkscape:cy="-40.712768"
   inkscape:window-x="0"
   inkscape:window-y="27"
   inkscape:window-maximized="1"
   inkscape:current-layer="layer2"
   fit-margin-top="0"
   fit-margin-left="0"
   fit-margin-right="0"
   fit-margin-bottom="0" />

<g
   inkscape:groupmode="layer"
   id="layer1"
   inkscape:label="Layer 1"
   transform="translate(-223.3871,-34.139684)" /><g
   inkscape:groupmode="layer"
   id="layer2"
   inkscape:label="Layer 2"
   transform="translate(-223.3871,-34.139684)"><g
     id="g3987"
     style="fill:#ffffff"
     transform="translate(185.56197,-55.803056)"><g
       transform="translate(-12.101868,-219.17826)"
       id="g3838"
       style="fill:#ffffff">
		<polygon
   points="80.362,527.041 98.112,495.787 68.237,441.412 50.5,471.412 "
   id="polygon3834"
   style="fill:#ffffff" />
		<path
   d="m 80.35,528.075 -30.423,-56.674 18.327,-30.998 30.432,55.388 z m -29.276,-56.651 29.3,54.583 17.165,-30.223 -29.318,-53.362 z"
   id="path3836"
   inkscape:connector-curvature="0"
   style="fill:#ffffff" />
	</g><g
       transform="translate(-12.101868,-219.17826)"
       id="g3844"
       style="fill:#ffffff">
		<polygon
   points="76.987,426.287 93.487,397.787 160.237,514.037 104.987,514.287 114.737,495.287 "
   id="polygon3840"
   style="fill:#ffffff" />
		<path
   d="m 104.167,514.791 10.004,-19.497 -37.758,-69.014 17.076,-29.494 67.609,117.747 z m -26.606,-88.497 37.742,68.986 -9.496,18.503 53.568,-0.242 -65.89,-114.753 z"
   id="path3842"
   inkscape:connector-curvature="0"
   style="fill:#ffffff" />
	</g><g
       transform="translate(-12.101868,-219.17826)"
       id="g3848"
       style="fill:#ffffff">
		<polygon
   points="177.82,514.287 102.154,382.121 144.82,309.121 160.237,338.787 134.154,382.121 211.154,514.287 "
   id="polygon3846"
   style="fill:#ffffff" />
	</g><g
       transform="translate(-12.101868,-219.17826)"
       id="g3852"
       style="fill:#ffffff">
		<polygon
   points="168.487,352.454 239.14,475.454 221.82,503.121 151.82,379.787 "
   id="polygon3850"
   style="fill:#ffffff" />
	</g></g></g></svg>